<svg width="1010" height="590" xmlns="http://www.w3.org/2000/svg">
 <!-- Created with Method Draw - http://github.com/duopixel/Method-Draw/ -->

 <g>
  <title>background</title>
  <rect x="-1" y="-1" width="1012" height="592" id="canvas_background" fill="none"/>
  <g id="canvasGrid" display="none">
   <rect id="svg_1" width="100%" height="100%" x="0" y="0" stroke-width="0" fill="url(#gridpattern)"/>
  </g>
 </g>
 <g>
  <rect fill="#e5e5e5" stroke-width="1.5" x="139" y="36" width="58" height="70" id="svg_4" stroke="#000"/>
  <rect fill="#e5e5e5" stroke-width="1.5" x="197" y="36" width="58" height="70" id="svg_5" stroke="#000"/>
  <rect fill="#e5e5e5" stroke-width="1.5" x="255" y="36" width="58" height="70" id="svg_6" stroke="#000"/>
  <rect fill="#e5e5e5" stroke-width="1.5" x="13" y="167.153247" width="70" height="155.508397" id="svg_7" stroke="#000"/>
  <rect fill="#e5e5e5" stroke-width="1.5" x="70.746267" y="322" width="127" height="70" id="svg_11" stroke="#000"/>
  <rect fill="#e5e5e5" stroke-width="1.5" x="197" y="322" width="58" height="70" id="svg_13" stroke="#000"/>
  <rect fill="#e5e5e5" stroke-width="1.5" x="255" y="322" width="58" height="70" id="svg_14" stroke="#000"/>
  <rect fill="#e5e5e5" stroke-width="1.5" x="243.253731" y="132.746269" width="69" height="165" id="svg_20" stroke="#000"/>
  <rect fill="#e5e5e5" stroke-width="1.5" x="369.515465" y="323" width="122.211357" height="70" id="svg_23" stroke="#000"/>
  <rect fill="#e5e5e5" stroke-width="1.5" x="368" y="20" width="55" height="85.789472" id="svg_24" stroke="#000"/>
  <rect fill="#e5e5e5" stroke-width="1.5" x="415" y="35" width="65.031313" height="71" id="svg_25" stroke="#000"/>
  <rect fill="#e5e5e5" stroke-width="1.5" x="496" y="35" width="65" height="71" id="svg_26" stroke="#000"/>
  <rect fill="#e5e5e5" stroke-width="1.5" x="561" y="35" width="65" height="71" id="svg_27" stroke="#000000"/>
  <rect fill="#e5e5e5" stroke-width="1.5" x="555" y="132" width="71" height="83" id="svg_28" stroke="#000"/>
  <rect fill="#e5e5e5" stroke-width="1.5" x="555" y="215" width="71" height="83" id="svg_29" stroke="#000"/>
  <rect fill="#515151" stroke-width="1.5" x="655" y="167" width="27.343987" height="89.844522" id="svg_33" stroke="#515151"/>
  <rect fill="#515151" stroke-width="1.5" x="340.487803" y="167.487803" width="27.343987" height="89.844522" id="svg_34" stroke="#515151"/>
  <rect stroke="#5fbf00" fill="#5fbf00" stroke-width="1.5" x="96.781257" y="110" width="828.768106" height="18" id="svg_36"/>
  <rect stroke="#5fbf00" fill="#5fbf00" stroke-width="1.5" x="96" y="301" width="828" height="18" id="svg_37"/>
  <rect fill="#5fbf00" stroke-width="1.5" x="87" y="110" width="18" height="209" id="svg_38" stroke="#5fbf00"/>
  <rect fill="#5fbf00" stroke-width="1.5" x="631" y="110" width="18" height="209" id="svg_39" stroke="#5fbf00"/>
  <rect fill="#5fbf00" stroke-width="1.5" x="317.622345" y="110.218743" width="18" height="207" id="svg_40" stroke="#5fbf00"/>
  <rect fill="#e5e5e5" stroke-width="1.5" x="686" y="132" width="70.468807" height="165" id="svg_31" stroke="#000"/>
  <rect fill="#e5e5e5" stroke-width="1.5" x="371" y="206.312409" width="69" height="90.687591" id="svg_22" stroke="#000"/>
  <rect fill="#5fbf00" stroke-width="1.5" x="318.63919" y="145" width="44.174874" height="18" id="svg_51" stroke="#5fbf00"/>
  <rect fill="#5fbf00" stroke-width="1.5" x="345" y="145" width="18" height="27.010819" id="svg_54" stroke="#5fbf00"/>
  <rect fill="#5fbf00" stroke-width="1.5" x="633" y="145" width="44.174874" height="18" id="svg_56" stroke="#5fbf00"/>
  <rect fill="#5fbf00" stroke-width="1.5" x="660" y="145" width="18" height="27.010819" id="svg_57" stroke="#5fbf00"/>
  <text fill="#000000" stroke="#000" stroke-width="0" stroke-opacity="null" x="409.555008" y="355.630279" id="svg_61" font-size="24" font-family="Helvetica, Arial, sans-serif" text-anchor="start" xml:space="preserve" transform="rotate(-4.7294721603393555 416.21875000000017,347.2578125000001) "/>
  <rect fill="#5fbf00" stroke-width="1.5" x="631.655765" y="261" width="45.731289" height="18" id="svg_70" stroke="#5fbf00"/>
  <rect fill="#5fbf00" stroke-width="1.5" x="908" y="301" width="18" height="207" id="svg_2" stroke="#5fbf00"/>
  <rect stroke="#000" fill="#e5e5e5" stroke-width="1.5" x="683" y="323" width="110.538289" height="70" id="svg_3"/>
  <rect fill="#e5e5e5" stroke-width="1.5" x="801" y="426" width="70" height="60" id="svg_15" stroke="#000"/>
  <rect fill="#e5e5e5" stroke-width="1.5" x="930" y="324.238808" width="70" height="57.761192" id="svg_21" stroke="#000"/>
  <rect fill="#5fbf00" stroke-width="1.5" x="660" y="252" width="18" height="27.010819" id="svg_32" stroke="#5fbf00"/>
  <rect stroke="#5fbf00" fill="#5fbf00" stroke-width="1.5" x="318" y="262" width="45" height="18" id="svg_35"/>
  <rect fill="#5fbf00" stroke-width="1.5" x="346" y="252" width="18" height="27.010819" id="svg_41" stroke="#5fbf00"/>
  <rect fill="#5fbf00" stroke-width="1.5" x="907.921967" y="110" width="18" height="209" id="svg_43" stroke="#5fbf00"/>
  <rect fill="#e5e5e5" stroke-width="1.5" x="874" y="36" width="63" height="70" id="svg_44" stroke="#000"/>
  <rect fill="#e5e5e5" stroke-width="1.5" x="930" y="100.746269" width="70" height="78" id="svg_45" stroke="#000"/>
  <rect fill="#e5e5e5" stroke-width="1.5" x="930" y="178" width="70" height="74" id="svg_46" stroke="#000"/>
  <rect fill="#e5e5e5" stroke-width="1.5" x="930" y="251" width="70" height="74" id="svg_47" stroke="#000"/>
  <rect fill="#e5e5e5" stroke-width="1.5" x="930" y="382.089554" width="70" height="86.910446" id="svg_50" stroke="#000"/>
  <rect fill="#e5e5e5" stroke-width="1.5" x="810.408284" y="36" width="63" height="70" id="svg_52" stroke="#000"/>
  <rect fill="#e5e5e5" stroke-width="1.5" x="748" y="36" width="63" height="70" id="svg_53" stroke="#000"/>
  <rect stroke="#000" fill="#e5e5e5" stroke-width="1.5" x="681" y="36" width="68" height="70" id="svg_55"/>
  <rect stroke="#5fbf00" fill="#5fbf00" stroke-width="1.5" x="801.714216" y="489.613983" width="121.866875" height="18" id="svg_58"/>
  <rect fill="#e5e5e5" stroke-width="1.5" x="801" y="511" width="63" height="70" id="svg_60" stroke="#000"/>
  <rect fill="#e5e5e5" stroke-width="1.5" x="864" y="511" width="63" height="70" id="svg_62" stroke="#000"/>
  <path fill="#000000" stroke="#000" stroke-width="0" stroke-opacity="null" fill-opacity="null" d="m448.33361,341.9942c0,-1.65425 1.41888,-2.99419 3.17057,-2.99419c1.7517,0 3.17058,1.33994 3.17058,2.99419c0,1.65425 -1.41888,2.99419 -3.17058,2.99419c-1.7517,0 -3.17057,-1.33994 -3.17057,-2.99419zm10.66001,8.47548l0,-1.51216c0,-1.591 -1.36498,-2.88097 -3.05069,-2.88097l-8.88732,0c-1.68473,0 -3.05069,1.28997 -3.05069,2.88097l0,1.51216c-0.00294,0.03432 -0.00491,0.06957 -0.00491,0.10529l0,8.70972c0,0.67676 0.58057,1.22503 1.2972,1.22503c0.71564,0 1.29768,-0.54827 1.29768,-1.22503l0,-8.58077l0.86987,0l0,9.80673l0.00638,0l0,13.8566c0,0.9008 0.77459,1.63275 1.72943,1.63275c0.95534,0 1.72943,-0.73102 1.72943,-1.63275l0,-13.8566l1.141,0l0,13.8566c0,0.9008 0.77507,1.63275 1.72943,1.63275c0.95533,0 1.72942,-0.73102 1.72942,-1.63275l0,-13.8566l0.00541,0l0,-9.80673l0.86987,0l0,8.58031c0,0.67676 0.58204,1.22549 1.29768,1.22549c0.71664,0 1.2972,-0.54874 1.2972,-1.22549l0,-8.70972c-0.00049,-0.03618 -0.00344,-0.07051 -0.00639,-0.10484l0,0.00001z" id="svg_10"/>
  <path fill="#000000" stroke-width="0" stroke-opacity="null" fill-opacity="null" d="m408.47535,344.98811c1.66945,0 3.02441,-1.34002 3.02441,-2.99312c0,-1.65403 -1.35496,-2.99497 -3.02441,-2.99497c-1.67086,0 -3.0263,1.34094 -3.0263,2.99497c0,1.6531 1.35497,2.99312 3.0263,2.99312zm8.48223,12.9085l-2.71414,-9.96222c-0.02531,-0.09045 -0.06094,-0.17672 -0.10405,-0.2565c-0.3084,-0.93324 -1.19374,-1.60904 -2.23937,-1.60904l-6.8695,0c-1.09016,0 -2.0055,0.73378 -2.27499,1.72963c-0.01828,0.0436 -0.03328,0.08952 -0.04687,0.13683l-2.66588,9.96177c-0.17763,0.65307 0.21419,1.32424 0.87503,1.50003c0.65991,0.17487 1.3381,-0.2129 1.51573,-0.86597l2.09361,-7.82535l0.87222,0l-3.79962,14.15854l3.58028,0l0,9.77483c0,0.75188 0.61491,1.36089 1.37559,1.36089c0.7588,0 1.37512,-0.60855 1.37512,-1.36089l0,-9.77483l1.09391,0l0,9.77483c0,0.75188 0.61584,1.36089 1.37652,1.36089c0.7588,0 1.37512,-0.60855 1.37512,-1.36089l0,-9.77483l3.5784,0l-3.81368,-14.15854l0.89519,0l2.13204,7.82535c0.17763,0.65307 0.85582,1.04084 1.51572,0.86597c0.6585,-0.17579 1.05032,-0.84742 0.87363,-1.5005l0,0l-0.00001,0z" id="svg_16" stroke="#000"/>
  <path fill="#ffffff" stroke-width="1.5" d="m343.07652,215.27014c1.33394,-0.00875 2.66788,-0.01751 4.00182,-0.02627c0.00878,-1.38511 0.01756,-2.77022 0.02634,-4.15533c1.32757,0 2.65513,0 3.9827,0c0,-1.39361 0,-2.78722 0,-4.18083c1.36156,0 2.72312,0 4.08469,0c0,-1.35961 0,-2.71923 0,-4.07885c1.34475,0 2.6895,0 4.03425,0c0,-1.35962 0,-2.71924 0,-4.07886c2.00032,0 4.00064,0 6.00096,0c0,0.67981 0,1.35962 0,2.03943c-1.32794,0 -2.65588,0 -3.98383,0c0,1.37661 0,2.75323 0,4.12984c-1.34475,0 -2.6895,0 -4.03426,0c0,1.37662 0,2.75323 0,4.12984c-1.34475,0 -2.6895,0 -4.03425,0c0,1.37662 0,2.75323 0,4.12984c-1.36157,0 -2.72313,0 -4.08469,0c0,1.39361 0,2.78722 0,4.18083c-2.01713,0 -4.03426,0 -6.05138,0c0.08992,-0.67556 -0.1533,-1.43733 0.05765,-2.08964l0,0z" id="svg_17" stroke="#ffffff"/>
  <path fill="#ffffff" stroke-width="1.5" d="m657.83882,215.27014c1.33394,-0.00876 2.66788,-0.01752 4.00182,-0.02628c0.00878,-1.38511 0.01756,-2.77022 0.02634,-4.15533c1.32757,0 2.65513,0 3.9827,0c0,-1.39361 0,-2.78722 0,-4.18082c1.36156,0 2.72312,0 4.08469,0c0,-1.35962 0,-2.71924 0,-4.07886c1.34475,0 2.6895,0 4.03425,0c0,-1.35962 0,-2.71924 0,-4.07885c2.00032,0 4.00064,0 6.00096,0c0,0.6798 0,1.35961 0,2.03942c-1.32794,0 -2.65588,0 -3.98383,0c0,1.37662 0,2.75323 0,4.12984c-1.34475,0 -2.6895,0 -4.03426,0c0,1.37662 0,2.75323 0,4.12984c-1.34475,0 -2.6895,0 -4.03425,0c0,1.37662 0,2.75323 0,4.12984c-1.36157,0 -2.72313,0 -4.08469,0c0,1.39361 0,2.78722 0,4.18083c-2.01713,0 -4.03426,0 -6.05139,0c0.08993,-0.67556 -0.1533,-1.43733 0.05766,-2.08963l0,0z" id="svg_30" stroke="#ffffff"/>
  <text fill="#000000" stroke="#000" stroke-width="0" stroke-opacity="null" fill-opacity="null" x="34.020659" y="318.041714" id="svg_42" font-size="10" font-family="Euphoria, sans-serif" text-anchor="start" xml:space="preserve">Raum 106</text>
  <text fill="#000000" stroke="#000" stroke-width="0" stroke-opacity="null" fill-opacity="null" x="148.453825" y="334" id="svg_48" font-size="10" font-family="Euphoria, sans-serif" text-anchor="start" xml:space="preserve">Raum 117</text>
  <text fill="#000000" stroke="#000" stroke-width="0" stroke-opacity="null" fill-opacity="null" x="206.701334" y="334" id="svg_49" font-size="10" font-family="Euphoria, sans-serif" text-anchor="start" xml:space="preserve">Raum 126</text>
  <text fill="#000000" stroke="#000" stroke-width="0" stroke-opacity="null" fill-opacity="null" x="264" y="334" id="svg_59" font-size="10" font-family="Euphoria, sans-serif" text-anchor="start" xml:space="preserve">Raum 128</text>
  <text fill="#000000" stroke="#000" stroke-width="0" stroke-opacity="null" fill-opacity="null" x="264.433386" y="144" id="svg_65" font-size="10" font-family="Euphoria, sans-serif" text-anchor="start" xml:space="preserve">Raum 111</text>
  <text fill="#000000" stroke="#000" stroke-width="0" stroke-opacity="null" fill-opacity="null" x="391" y="293" id="svg_67" font-size="10" font-family="Euphoria, sans-serif" text-anchor="start" xml:space="preserve">Raum 140</text>
  <text fill="#000000" stroke="#000" stroke-width="0" stroke-opacity="null" fill-opacity="null" x="578" y="294" id="svg_68" font-size="10" font-family="Euphoria, sans-serif" text-anchor="start" xml:space="preserve">Raum 143</text>
  <text fill="#000000" stroke="#000" stroke-width="0" stroke-opacity="null" fill-opacity="null" x="578" y="143" id="svg_69" font-size="10" font-family="Euphoria, sans-serif" text-anchor="start" xml:space="preserve">Raum 142</text>
  <text fill="#000000" stroke="#000" stroke-width="0" stroke-opacity="null" fill-opacity="null" x="577.484535" y="101.216202" id="svg_71" font-size="10" font-family="Euphoria, sans-serif" text-anchor="start" xml:space="preserve">Raum 138</text>
  <text fill="#000000" stroke="#000" stroke-width="0" stroke-opacity="null" fill-opacity="null" x="512.53598" y="101.731667" id="svg_72" font-size="10" font-family="Euphoria, sans-serif" text-anchor="start" xml:space="preserve">Raum 137</text>
  <text fill="#000000" stroke="#000" stroke-width="0" stroke-opacity="null" fill-opacity="null" x="431.608025" y="101.731667" id="svg_73" font-size="10" font-family="Euphoria, sans-serif" text-anchor="start" xml:space="preserve">Raum 136</text>
  <text fill="#000000" stroke="#000" stroke-width="0" stroke-opacity="null" fill-opacity="null" x="370" y="31" id="svg_74" font-size="10" font-family="Euphoria, sans-serif" text-anchor="start" xml:space="preserve">Raum 131</text>
  <text fill="#000000" stroke="#000" stroke-width="0" stroke-opacity="null" fill-opacity="null" x="264.081997" y="101.731667" id="svg_75" font-size="10" font-family="Euphoria, sans-serif" text-anchor="start" xml:space="preserve">Raum 104</text>
  <text fill="#000000" stroke="#000" stroke-width="0" stroke-opacity="null" fill-opacity="null" x="207" y="101.731667" id="svg_76" font-size="10" font-family="Euphoria, sans-serif" text-anchor="start" xml:space="preserve">Raum 103</text>
  <text fill="#000000" stroke="#000" stroke-width="0" stroke-opacity="null" fill-opacity="null" x="149" y="101.731667" id="svg_77" font-size="10" font-family="Euphoria, sans-serif" text-anchor="start" xml:space="preserve">Raum 102</text>
  <text fill="#000000" stroke="#000" stroke-width="0" stroke-opacity="null" fill-opacity="null" x="700" y="101.216202" id="svg_79" font-size="10" font-family="Euphoria, sans-serif" text-anchor="start" xml:space="preserve">Raum 150</text>
  <text fill="#000000" stroke="#000" stroke-width="0" stroke-opacity="null" fill-opacity="null" x="763" y="101.216202" id="svg_80" font-size="10" font-family="Euphoria, sans-serif" text-anchor="start" xml:space="preserve">Raum 151</text>
  <text fill="#000000" stroke="#000" stroke-width="0" stroke-opacity="null" fill-opacity="null" x="826" y="101.216202" id="svg_81" font-size="10" font-family="Euphoria, sans-serif" text-anchor="start" xml:space="preserve">Raum 152</text>
  <text fill="#000000" stroke="#000" stroke-width="0" stroke-opacity="null" fill-opacity="null" x="881" y="101.216202" id="svg_82" font-size="10" font-family="Euphoria, sans-serif" text-anchor="start" xml:space="preserve">Raum 153</text>
  <text fill="#000000" stroke="#000" stroke-width="0" stroke-opacity="null" fill-opacity="null" x="933" y="173" id="svg_83" font-size="10" font-family="Euphoria, sans-serif" text-anchor="start" xml:space="preserve">Raum 172</text>
  <text fill="#000000" stroke="#000" stroke-width="0" stroke-opacity="null" fill-opacity="null" x="933" y="246" id="svg_84" font-size="10" font-family="Euphoria, sans-serif" text-anchor="start" xml:space="preserve">Raum 171</text>
  <text fill="#000000" stroke="#000" stroke-width="0" stroke-opacity="null" fill-opacity="null" x="933" y="320" id="svg_85" font-size="10" font-family="Euphoria, sans-serif" text-anchor="start" xml:space="preserve">Raum 170</text>
  <text fill="#000000" stroke="#000" stroke-width="0" stroke-opacity="null" fill-opacity="null" x="933" y="377" id="svg_86" font-size="10" font-family="Euphoria, sans-serif" text-anchor="start" xml:space="preserve">Raum 169</text>
  <text fill="#000000" stroke="#000" stroke-width="0" stroke-opacity="null" fill-opacity="null" x="932" y="464" id="svg_87" font-size="10" font-family="Euphoria, sans-serif" text-anchor="start" xml:space="preserve">Raum 167</text>
  <text fill="#000000" stroke="#000" stroke-width="0" stroke-opacity="null" fill-opacity="null" x="878.422676" y="523" id="svg_88" font-size="10" font-family="Euphoria, sans-serif" text-anchor="start" xml:space="preserve">Raum 165</text>
  <text fill="#000000" stroke="#000" stroke-width="0" stroke-opacity="null" fill-opacity="null" x="815" y="523" id="svg_89" font-size="10" font-family="Euphoria, sans-serif" text-anchor="start" xml:space="preserve">Raum 164</text>
  <text fill="#000000" stroke="#000" stroke-width="0" stroke-opacity="null" fill-opacity="null" x="823" y="482" id="svg_90" font-size="10" font-family="Euphoria, sans-serif" text-anchor="start" xml:space="preserve">Raum 162</text>
  <text fill="#000000" stroke="#000" stroke-width="0" stroke-opacity="null" fill-opacity="null" x="743" y="334" id="svg_91" font-size="10" font-family="Euphoria, sans-serif" text-anchor="start" xml:space="preserve">Raum 159</text>
  <text fill="#000000" stroke="#000" stroke-width="0" stroke-opacity="null" fill-opacity="null" x="707" y="143.253733" id="svg_92" font-size="10" font-family="Euphoria, sans-serif" text-anchor="start" xml:space="preserve">Raum 154</text>
  <rect fill="#e5e5e5" stroke-width="1.5" x="927" y="511" width="63" height="70" id="svg_94" stroke="#000"/>
  <text fill="#000000" stroke="#000" stroke-width="0" stroke-opacity="null" fill-opacity="null" x="941" y="523" id="svg_95" font-size="10" font-family="Euphoria, sans-serif" text-anchor="start" xml:space="preserve">Raum 166</text>
  <rect fill="#e5e5e5" stroke-width="1.5" x="13" y="98" width="70" height="70" id="svg_96" stroke="#000"/>
  <rect fill="#e5e5e5" stroke-width="1.5" x="70" y="36" width="69" height="70" id="svg_8" stroke="#000"/>
  <text fill="#000000" stroke="#000" stroke-width="0" stroke-opacity="null" fill-opacity="null" x="90.408284" y="101.139951" id="svg_98" font-size="10" font-family="Euphoria, sans-serif" text-anchor="start" xml:space="preserve">Raum 101</text>
  <text fill="#000000" stroke="#000" stroke-width="0" stroke-opacity="null" fill-opacity="null" x="34.020659" y="163" id="svg_99" font-size="10" font-family="Euphoria, sans-serif" text-anchor="start" xml:space="preserve">Raum 105</text>

 </g>
</svg>
