<?xml version="1.0" encoding="UTF-8" ?>
<!DOCTYPE svg PUBLIC "-//W3C//DTD SVG 1.1//EN" "http://www.w3.org/Graphics/SVG/1.1/DTD/svg11.dtd">
<svg width="84pt" height="84pt" viewBox="0 0 84 84" version="1.1" xmlns="http://www.w3.org/2000/svg">
<g id="#d2d2d2ff">
</g>
<g id="#ffffffff">
<path fill="#eaeaea" opacity="1.00" d=" M 32.54 2.91 C 37.31 2.02 42.23 2.61 47.05 2.49 C 51.77 2.03 55.64 5.13 59.97 6.40 C 70.76 11.83 78.58 22.38 81.43 34.01 C 81.61 39.61 81.70 45.24 81.32 50.83 C 78.87 58.42 75.09 65.67 69.42 71.38 C 64.25 75.94 57.86 78.70 51.53 81.22 C 45.22 81.73 38.80 81.75 32.49 81.21 C 24.34 77.91 15.45 74.27 10.55 66.52 C 6.88 62.13 4.95 56.71 2.82 51.49 C 2.06 45.44 2.44 39.28 2.66 33.21 C 3.74 29.59 5.54 26.20 6.99 22.71 C 10.05 17.46 14.27 12.86 19.21 9.32 C 23.12 6.20 28.07 4.98 32.54 2.91 M 34.35 18.34 C 26.53 21.46 20.40 27.94 17.74 35.93 C 17.28 39.95 17.28 44.06 17.75 48.09 C 20.23 54.68 24.55 60.88 31.06 64.00 C 35.70 67.38 41.64 66.61 47.02 66.37 C 56.34 64.09 64.08 56.26 66.42 46.99 C 66.46 42.09 67.41 36.71 64.71 32.30 C 62.57 28.32 60.02 24.33 56.06 21.94 C 52.65 19.91 49.19 17.25 45.01 17.49 C 41.47 17.57 37.72 16.98 34.35 18.34 Z" />
</g>
<g id="#dbdbdbff">
</g>
</svg>
