<?xml version="1.0" encoding="UTF-8" ?>
<!DOCTYPE svg PUBLIC "-//W3C//DTD SVG 1.1//EN" "http://www.w3.org/Graphics/SVG/1.1/DTD/svg11.dtd">
<svg width="110pt" height="120pt" viewBox="0 0 110 120" version="1.1" xmlns="http://www.w3.org/2000/svg">
<g id="#eaeaeaff">
<path fill="#eaeaea" opacity="1.00" d=" M 31.79 0.00 L 36.37 0.00 C 46.32 12.26 57.72 23.21 68.10 35.10 C 62.61 38.31 56.02 36.57 50.00 36.98 C 49.81 47.97 50.11 58.97 49.94 69.96 C 50.24 71.74 48.74 73.24 46.96 72.94 C 38.33 73.02 29.68 73.02 21.04 72.94 C 19.26 73.24 17.76 71.74 18.06 69.96 C 17.89 58.97 18.19 47.97 18.00 36.98 C 11.99 36.78 5.71 37.86 0.00 35.46 L 0.00 34.61 C 10.82 23.27 21.58 11.89 31.79 0.00 Z" />
<path fill="#eaeaea" opacity="1.00" d=" M 60.06 50.04 C 59.76 48.25 61.27 46.77 63.04 47.06 C 71.68 46.98 80.32 46.98 88.96 47.06 C 90.73 46.77 92.25 48.25 91.94 50.04 C 92.11 61.03 91.81 72.03 92.00 83.03 C 98.01 83.22 104.30 82.13 110.00 84.55 L 110.00 85.40 C 99.23 96.76 88.41 108.07 78.26 120.00 L 73.63 120.00 C 70.82 116.32 67.52 113.04 64.48 109.55 C 57.37 100.95 48.99 93.51 41.88 84.90 C 47.39 81.70 53.97 83.42 60.00 83.02 C 60.19 72.03 59.89 61.03 60.06 50.04 Z" />
</g>
</svg>
